<svg width="269" height="116" viewBox="0 0 269 116" fill="none" xmlns="http://www.w3.org/2000/svg">
<path d="M76.6867 43.1628C76.6867 37.5962 76.0039 32.629 74.6383 28.2613C73.2727 23.808 71.3523 20.0399 68.8772 16.9568C66.4874 13.8737 63.5428 11.5186 60.0435 9.89147C56.6295 8.17866 52.8741 7.32226 48.7773 7.32226C44.4245 7.32226 40.4984 8.39276 36.9991 10.5338C33.5851 12.5891 30.6832 15.4153 28.2934 19.0122C25.9036 22.6091 24.0686 26.8483 22.7884 31.7298C21.5935 36.5257 20.996 41.6641 20.996 47.1451C20.996 53.9963 21.7215 59.777 23.1724 64.4873C24.6234 69.1975 26.5864 73.0085 29.0616 75.9203C31.5367 78.7464 34.3959 80.8018 37.6392 82.0864C40.8825 83.371 44.2965 84.0133 47.8812 84.0133C51.7219 84.0133 55.3919 83.1997 58.8913 81.5725C62.3906 79.9454 65.4205 77.4618 67.981 74.1218C70.6269 70.7818 72.7179 66.5426 74.2542 61.4042C75.8759 56.2658 76.6867 50.1853 76.6867 43.1628ZM49.1614 0C55.9894 0 62.3479 0.942043 68.2371 2.82613C74.1262 4.71022 79.2472 7.53636 83.6 11.3045C87.9529 15.0727 91.3668 19.8686 93.842 25.6921C96.4025 31.43 97.6827 38.1528 97.6827 45.8605C97.6827 50.9132 96.9146 55.7091 95.3783 60.2481C93.9273 64.787 91.7936 68.9406 88.977 72.7087C86.1605 76.4769 82.7465 79.8169 78.7351 82.7287C74.7237 85.5548 70.1574 87.8671 65.0365 89.6656C68.1944 91.3784 71.3523 93.1768 74.5103 95.0609C77.6682 97.0306 80.6981 98.8719 83.6 100.585C86.5019 102.383 89.2331 104.01 91.7936 105.466C94.3541 106.922 96.6158 108.121 98.5789 109.063C95.5917 109.491 92.6898 110.305 89.8732 111.504C87.0567 112.703 83.9414 114.202 80.5274 116C77.6255 113.688 75.0224 111.632 72.7179 109.834C70.4135 108.121 68.0664 106.365 65.6766 104.567C63.2868 102.769 60.641 100.842 57.7391 98.7863C54.8372 96.8165 51.2952 94.4186 47.113 91.5925C40.8825 91.5925 34.908 90.7361 29.1896 89.0233C23.4712 87.3104 18.4355 84.6128 14.0827 80.9302C9.81521 77.162 6.40123 72.409 3.84074 66.6711C1.28025 60.8475 0 53.9535 0 45.9889C0 39.6515 1.15222 33.6995 3.45666 28.1329C5.84645 22.5663 9.17509 17.6848 13.4426 13.4884C17.7101 9.29199 22.8737 5.99483 28.9335 3.5969C34.9934 1.19897 41.736 0 49.1614 0Z" fill="#00296A"/>
<path d="M117 90.2323C115.394 90.2323 113.888 90.056 112.482 89.7033C111.101 89.3759 109.896 88.8217 108.867 88.0409C107.838 87.2349 107.022 86.2148 106.42 84.9805C105.842 83.7211 105.553 82.1972 105.553 80.4088C105.553 79.4013 105.553 78.5071 105.553 77.7263C105.579 76.9202 105.591 76.1772 105.591 75.4971C105.591 74.817 105.591 74.1621 105.591 73.5324C105.616 72.9027 105.629 72.2478 105.629 71.5677C105.629 69.5275 105.616 67.8776 105.591 66.6182C105.566 65.3588 105.528 64.4142 105.478 63.7845C105.98 63.8349 106.495 63.8853 107.022 63.9356C107.549 63.9608 108.064 63.9734 108.566 63.9734C109.068 63.9734 109.582 63.9608 110.11 63.9356C110.637 63.8853 111.151 63.8349 111.653 63.7845C111.402 66.2278 111.252 68.5073 111.202 70.6232C111.151 72.7138 111.126 74.8422 111.126 77.0084C111.126 79.3005 111.289 81.1519 111.616 82.5624C111.942 83.973 112.419 85.0687 113.047 85.8495C113.699 86.6052 114.49 87.1089 115.419 87.3608C116.348 87.6127 117.427 87.7386 118.657 87.7386C120.163 87.7386 121.343 87.3608 122.197 86.6052C123.05 85.8495 123.69 84.842 124.117 83.5826C124.569 82.3231 124.845 80.8874 124.945 79.2754C125.046 77.6381 125.096 75.9379 125.096 74.1747C125.096 72.4367 125.071 70.7113 125.021 68.9985C124.971 67.2605 124.895 65.5225 124.795 63.7845C125.146 63.8349 125.485 63.8853 125.811 63.9356C126.138 63.9608 126.439 63.9734 126.715 63.9734C127.041 63.9734 127.355 63.9608 127.657 63.9356C127.958 63.8853 128.272 63.8349 128.598 63.7845C128.548 64.3386 128.497 65.0817 128.447 66.0137C128.397 66.9456 128.347 68.0287 128.297 69.263C128.246 70.472 128.196 71.8196 128.146 73.3057C128.121 74.7666 128.108 76.3157 128.108 77.953C128.108 82.3357 127.167 85.4843 125.284 87.3986C123.402 89.2877 120.64 90.2323 117 90.2323Z" fill="#00296A"/>
<path d="M142.73 70.8876C142.078 72.3989 141.463 73.8976 140.885 75.3837C140.308 76.8447 139.743 78.3434 139.191 79.8799H146.081C145.529 78.3434 144.977 76.8447 144.425 75.3837C143.898 73.8976 143.333 72.3989 142.73 70.8876ZM156.06 89.7411C155.457 89.6907 154.88 89.6656 154.328 89.6656C153.801 89.6656 153.273 89.6656 152.746 89.6656C152.219 89.6656 151.679 89.6656 151.127 89.6656C150.6 89.6656 150.073 89.6907 149.546 89.7411C149.144 88.5069 148.73 87.2475 148.303 85.9629C147.876 84.6783 147.425 83.3937 146.948 82.109C146.144 82.0839 145.341 82.0713 144.538 82.0713C143.734 82.0461 142.931 82.0335 142.128 82.0335C141.475 82.0335 140.822 82.0461 140.17 82.0713C139.517 82.0713 138.864 82.0839 138.212 82.109C137.71 83.3937 137.245 84.6783 136.819 85.9629C136.392 87.2475 136.003 88.5069 135.651 89.7411C135.35 89.6907 135.049 89.6656 134.748 89.6656C134.471 89.6656 134.183 89.6656 133.882 89.6656C133.58 89.6656 133.279 89.6656 132.978 89.6656C132.677 89.6656 132.35 89.6907 131.999 89.7411C132.3 89.0862 132.702 88.1794 133.204 87.0208C133.706 85.8621 134.258 84.5523 134.861 83.0914C135.463 81.6305 136.103 80.0688 136.781 78.4064C137.484 76.7187 138.174 75.0185 138.852 73.3057C139.555 71.5929 140.233 69.9053 140.885 68.2428C141.563 66.5804 142.178 65.0313 142.73 63.5956C142.981 63.646 143.22 63.6963 143.446 63.7467C143.672 63.7719 143.91 63.7845 144.161 63.7845C144.412 63.7845 144.651 63.7719 144.877 63.7467C145.102 63.6963 145.341 63.646 145.592 63.5956C146.395 65.7366 147.249 68.0287 148.152 70.472C149.081 72.9153 150.01 75.3208 150.939 77.6885C151.868 80.031 152.771 82.2602 153.65 84.376C154.529 86.4918 155.332 88.2802 156.06 89.7411Z" fill="#00296A"/>
<path d="M160.277 71.3032C160.277 69.5652 160.252 68.1043 160.202 66.9205C160.151 65.7366 160.114 64.6913 160.089 63.7845C160.791 63.9104 161.356 63.9734 161.783 63.9734C162.21 63.9734 162.775 63.9104 163.477 63.7845C166.214 66.8323 168.912 69.8297 171.573 72.7768C174.259 75.7238 177.008 78.7212 179.819 81.769V74.817C179.819 73.5828 179.807 72.3737 179.782 71.1899C179.782 69.9809 179.769 68.8726 179.744 67.865C179.744 66.8575 179.719 65.9885 179.669 65.258C179.644 64.5276 179.606 64.0364 179.556 63.7845C180.259 63.9104 180.824 63.9734 181.25 63.9734C181.677 63.9734 182.242 63.9104 182.945 63.7845C182.819 66.0766 182.719 68.1547 182.644 70.0186C182.568 71.8574 182.505 73.5954 182.455 75.2326C182.405 76.8699 182.367 78.4945 182.342 80.1066C182.342 81.6934 182.342 83.3936 182.342 85.2072V89.7411C181.84 89.6907 181.326 89.6656 180.798 89.6656C180.246 89.6656 179.757 89.6907 179.33 89.7411C174.159 83.6959 168.674 77.6129 162.875 71.4921C162.85 72.2226 162.825 72.9531 162.8 73.6835C162.8 74.414 162.8 75.1571 162.8 75.9127V80.2955C162.8 81.8068 162.8 83.0914 162.8 84.1493C162.825 85.2072 162.85 86.1014 162.875 86.8319C162.9 87.5623 162.925 88.1668 162.95 88.6454C162.975 89.0988 163.001 89.4641 163.026 89.7411C162.724 89.6907 162.423 89.6656 162.122 89.6656C161.821 89.6656 161.532 89.6656 161.256 89.6656C160.679 89.6656 160.101 89.6907 159.524 89.7411C159.574 89.5396 159.637 88.8217 159.712 87.5875C159.787 86.3533 159.863 84.8546 159.938 83.0914C160.038 81.303 160.114 79.3761 160.164 77.3107C160.239 75.22 160.277 73.2175 160.277 71.3032Z" fill="#00296A"/>
<path d="M193.688 69.9431C193.688 69.2126 193.676 68.5451 193.651 67.9406C193.651 67.3361 193.626 66.8953 193.575 66.6182C193.199 66.6182 192.734 66.6308 192.182 66.656C191.63 66.6812 191.04 66.7189 190.412 66.7693C189.785 66.7945 189.145 66.8449 188.492 66.9205C187.839 66.9708 187.237 67.0338 186.685 67.1094C186.735 66.8323 186.772 66.5552 186.798 66.2782C186.848 66.0011 186.873 65.724 186.873 65.4469C186.873 65.1699 186.848 64.8928 186.798 64.6157C186.772 64.3386 186.735 64.0616 186.685 63.7845C187.538 63.8097 188.304 63.8349 188.981 63.8601C189.684 63.8853 190.387 63.9104 191.09 63.9356C191.818 63.9356 192.596 63.9482 193.425 63.9734C194.278 63.9734 195.295 63.9734 196.475 63.9734C197.655 63.9734 198.659 63.9734 199.487 63.9734C200.341 63.9482 201.119 63.9356 201.822 63.9356C202.524 63.9104 203.202 63.8853 203.855 63.8601C204.533 63.8349 205.261 63.8097 206.039 63.7845C205.989 64.0616 205.938 64.3386 205.888 64.6157C205.863 64.8928 205.851 65.1699 205.851 65.4469C205.851 65.724 205.863 66.0011 205.888 66.2782C205.938 66.5552 205.989 66.8323 206.039 67.1094C205.537 67.0338 204.972 66.9708 204.344 66.9205C203.717 66.8449 203.089 66.7945 202.462 66.7693C201.859 66.7189 201.282 66.6812 200.73 66.656C200.177 66.6308 199.713 66.6182 199.336 66.6182C199.311 66.7441 199.286 66.9205 199.261 67.1471C199.261 67.3738 199.261 67.6383 199.261 67.9406V79.3887C199.261 81.4793 199.286 83.3433 199.336 84.9805C199.387 86.5926 199.462 88.1794 199.562 89.7411C199.136 89.6907 198.671 89.6656 198.169 89.6656C197.667 89.6656 197.102 89.6656 196.475 89.6656C195.847 89.6656 195.282 89.6656 194.78 89.6656C194.278 89.6656 193.814 89.6907 193.387 89.7411C193.487 88.1794 193.563 86.5926 193.613 84.9805C193.663 83.3433 193.688 81.4793 193.688 79.3887V69.9431Z" fill="#00296A"/>
<path d="M221.653 90.2323C220.046 90.2323 218.54 90.056 217.134 89.7033C215.754 89.3759 214.549 88.8217 213.519 88.0409C212.49 87.2349 211.674 86.2148 211.072 84.9805C210.495 83.7211 210.206 82.1972 210.206 80.4088C210.206 79.4013 210.206 78.5071 210.206 77.7263C210.231 76.9202 210.244 76.1772 210.244 75.4971C210.244 74.817 210.244 74.1621 210.244 73.5324C210.269 72.9027 210.281 72.2478 210.281 71.5677C210.281 69.5275 210.269 67.8776 210.244 66.6182C210.218 65.3588 210.181 64.4142 210.131 63.7845C210.633 63.8349 211.147 63.8853 211.674 63.9356C212.202 63.9608 212.716 63.9734 213.218 63.9734C213.72 63.9734 214.235 63.9608 214.762 63.9356C215.289 63.8853 215.804 63.8349 216.306 63.7845C216.055 66.2278 215.904 68.5073 215.854 70.6232C215.804 72.7138 215.779 74.8422 215.779 77.0084C215.779 79.3005 215.942 81.1519 216.268 82.5624C216.595 83.973 217.071 85.0687 217.699 85.8495C218.352 86.6052 219.142 87.1089 220.071 87.3608C221 87.6127 222.079 87.7386 223.31 87.7386C224.816 87.7386 225.996 87.3608 226.849 86.6052C227.703 85.8495 228.343 84.842 228.769 83.5826C229.221 82.3231 229.497 80.8874 229.598 79.2754C229.698 77.6381 229.748 75.9379 229.748 74.1747C229.748 72.4367 229.723 70.7113 229.673 68.9985C229.623 67.2605 229.548 65.5225 229.447 63.7845C229.799 63.8349 230.138 63.8853 230.464 63.9356C230.79 63.9608 231.091 63.9734 231.368 63.9734C231.694 63.9734 232.008 63.9608 232.309 63.9356C232.61 63.8853 232.924 63.8349 233.25 63.7845C233.2 64.3386 233.15 65.0817 233.1 66.0137C233.049 66.9456 232.999 68.0287 232.949 69.263C232.899 70.472 232.849 71.8196 232.798 73.3057C232.773 74.7666 232.761 76.3157 232.761 77.953C232.761 82.3357 231.819 85.4843 229.937 87.3986C228.054 89.2877 225.293 90.2323 221.653 90.2323Z" fill="#00296A"/>
<path d="M242.488 72.7012C242.086 75.5979 241.785 78.4567 241.584 81.2778C241.383 84.0989 241.182 86.92 240.981 89.7411C240.68 89.6907 240.379 89.6656 240.078 89.6656C239.777 89.6656 239.488 89.6656 239.212 89.6656C238.91 89.6656 238.609 89.6656 238.308 89.6656C238.032 89.6656 237.743 89.6907 237.442 89.7411C238.245 85.4087 238.961 81.1015 239.588 76.8195C240.216 72.5375 240.793 68.1925 241.32 63.7845C241.596 63.8349 241.848 63.8853 242.073 63.9356C242.324 63.9608 242.588 63.9734 242.864 63.9734C243.09 63.9734 243.329 63.9608 243.58 63.9356C243.831 63.8853 244.094 63.8349 244.37 63.7845C245.048 65.2958 245.751 66.8323 246.479 68.394C247.232 69.9557 247.973 71.5173 248.701 73.079C249.454 74.6155 250.194 76.1268 250.922 77.6129C251.675 79.099 252.391 80.5096 253.068 81.8446C254.575 79.0235 256.068 76.0764 257.549 73.0034C259.056 69.9053 260.486 66.8323 261.842 63.7845C262.469 63.9104 263.009 63.9734 263.461 63.9734C263.888 63.9734 264.415 63.9104 265.043 63.7845C265.294 65.9507 265.557 68.2806 265.833 70.7743C266.134 73.2679 266.423 75.7112 266.699 78.1041C266.975 80.4718 267.252 82.6884 267.528 84.7538C267.804 86.8193 268.055 88.4817 268.281 89.7411C267.779 89.6907 267.264 89.6656 266.737 89.6656C266.235 89.6656 265.733 89.6656 265.231 89.6656C264.729 89.6656 264.214 89.6656 263.687 89.6656C263.16 89.6656 262.633 89.6907 262.105 89.7411C261.98 87.1467 261.767 84.3382 261.465 81.3156C261.189 78.293 260.901 75.2956 260.599 72.3234H260.524C259.093 75.2956 257.687 78.2174 256.307 81.0889C254.926 83.9604 253.558 86.8445 252.202 89.7411C252.077 89.7159 251.951 89.6907 251.826 89.6656C251.725 89.6656 251.613 89.6656 251.487 89.6656C251.361 89.6656 251.236 89.6656 251.11 89.6656C251.01 89.6907 250.897 89.7159 250.772 89.7411C249.416 86.92 248.06 84.0989 246.705 81.2778C245.374 78.4567 243.994 75.5979 242.563 72.7012H242.488Z" fill="#00296A"/>
<path d="M146.709 48.5581C145.423 48.5581 144.218 48.4171 143.094 48.135C141.989 47.873 141.025 47.4297 140.202 46.805C139.379 46.1602 138.726 45.3441 138.244 44.3567C137.782 43.3492 137.551 42.1301 137.551 40.6994C137.551 39.8933 137.551 39.178 137.551 38.5533C137.571 37.9085 137.581 37.314 137.581 36.77C137.581 36.2259 137.581 35.702 137.581 35.1982C137.601 34.6945 137.611 34.1705 137.611 33.6265C137.611 31.9943 137.601 30.6744 137.581 29.6669C137.561 28.6593 137.531 27.9037 137.491 27.3999C137.892 27.4402 138.304 27.4805 138.726 27.5208C139.148 27.541 139.559 27.551 139.961 27.551C140.363 27.551 140.774 27.541 141.196 27.5208C141.618 27.4805 142.029 27.4402 142.431 27.3999C142.23 29.3545 142.11 31.1782 142.07 32.8708C142.029 34.5433 142.009 36.2461 142.009 37.979C142.009 39.8127 142.14 41.2938 142.401 42.4223C142.662 43.5507 143.044 44.4272 143.546 45.0519C144.068 45.6564 144.7 46.0595 145.443 46.261C146.186 46.4625 147.05 46.5632 148.034 46.5632C149.239 46.5632 150.183 46.261 150.866 45.6564C151.548 45.0519 152.061 44.2459 152.402 43.2384C152.763 42.2308 152.984 41.0822 153.065 39.7926C153.145 38.4828 153.185 37.1226 153.185 35.7121C153.185 34.3217 153.165 32.9413 153.125 31.5711C153.085 30.1807 153.024 28.7903 152.944 27.3999C153.225 27.4402 153.496 27.4805 153.757 27.5208C154.019 27.541 154.26 27.551 154.48 27.551C154.741 27.551 154.993 27.541 155.234 27.5208C155.474 27.4805 155.726 27.4402 155.987 27.3999C155.946 27.8432 155.906 28.4377 155.866 29.1832C155.826 29.9288 155.786 30.7953 155.746 31.7827C155.705 32.7499 155.665 33.828 155.625 35.0169C155.605 36.1856 155.595 37.4249 155.595 38.7347C155.595 42.2409 154.842 44.7597 153.336 46.2912C151.83 47.8025 149.621 48.5581 146.709 48.5581Z" fill="#00296A"/>
<path d="M164.16 35.8934C164.722 35.0471 165.375 34.3922 166.118 33.9287C166.881 33.4653 167.744 33.2335 168.708 33.2335C170.214 33.2335 171.369 33.6768 172.173 34.5635C172.996 35.43 173.408 36.8405 173.408 38.7951C173.408 39.8228 173.387 40.7296 173.347 41.5155C173.307 42.3013 173.287 43.0872 173.287 43.8731C173.287 44.5179 173.297 45.2232 173.317 45.9889C173.357 46.7345 173.398 47.4599 173.438 48.1652C173.177 48.1249 172.845 48.1047 172.444 48.1047C172.042 48.1047 171.62 48.1047 171.178 48.1047C170.737 48.1047 170.315 48.1047 169.913 48.1047C169.512 48.1047 169.18 48.1249 168.919 48.1652C169.06 47.1174 169.15 45.8882 169.19 44.4776C169.23 43.0469 169.251 41.4147 169.251 39.581C169.251 38.3115 169.03 37.3846 168.588 36.8002C168.166 36.1957 167.564 35.8934 166.78 35.8934C165.877 35.8934 165.214 36.2864 164.792 37.0722C164.371 37.8581 164.16 38.9463 164.16 40.3367V41.5457C164.16 42.7749 164.17 43.9336 164.19 45.0217C164.23 46.1098 164.3 47.1577 164.401 48.1652C164.14 48.1249 163.808 48.1047 163.407 48.1047C163.025 48.1047 162.603 48.1047 162.141 48.1047C161.68 48.1047 161.258 48.1047 160.876 48.1047C160.495 48.1047 160.163 48.1249 159.882 48.1652C159.983 47.1577 160.043 46.1098 160.063 45.0217C160.103 43.9336 160.123 42.7749 160.123 41.5457V40.3367C160.123 39.1075 160.103 37.9589 160.063 36.8909C160.043 35.8027 159.983 34.7146 159.882 33.6265C160.244 33.6668 160.595 33.7071 160.936 33.7474C161.298 33.7675 161.659 33.7776 162.021 33.7776C162.382 33.7776 162.734 33.7675 163.075 33.7474C163.437 33.7071 163.818 33.6668 164.22 33.6265L164.099 35.8934H164.16Z" fill="#00296A"/>
<path d="M176.832 27.9137C176.832 27.2488 177.062 26.6846 177.524 26.2211C177.986 25.7576 178.549 25.5259 179.211 25.5259C179.874 25.5259 180.436 25.7576 180.898 26.2211C181.36 26.6846 181.591 27.2488 181.591 27.9137C181.591 28.5787 181.36 29.1429 180.898 29.6064C180.436 30.0699 179.874 30.3016 179.211 30.3016C178.549 30.3016 177.986 30.0699 177.524 29.6064C177.062 29.1429 176.832 28.5787 176.832 27.9137ZM177.193 40.3367C177.193 39.1075 177.173 37.9589 177.133 36.8909C177.113 35.8027 177.052 34.7146 176.952 33.6265C177.233 33.6668 177.565 33.7071 177.946 33.7474C178.328 33.7675 178.749 33.7776 179.211 33.7776C180.155 33.7776 180.908 33.7272 181.471 33.6265C181.37 34.7146 181.3 35.8027 181.26 36.8909C181.24 37.9589 181.23 39.1075 181.23 40.3367V41.5457C181.23 42.7749 181.24 43.9336 181.26 45.0217C181.3 46.1098 181.37 47.1577 181.471 48.1652C181.209 48.1249 180.878 48.1047 180.476 48.1047C180.095 48.1047 179.673 48.1047 179.211 48.1047C178.749 48.1047 178.328 48.1047 177.946 48.1047C177.565 48.1047 177.233 48.1249 176.952 48.1652C177.052 47.1577 177.113 46.1098 177.133 45.0217C177.173 43.9336 177.193 42.7749 177.193 41.5457V40.3367Z" fill="#00296A"/>
<path d="M191.373 44.2056C192.016 42.4323 192.629 40.6691 193.211 38.916C193.813 37.1629 194.406 35.3997 194.988 33.6265C195.209 33.6668 195.42 33.7071 195.621 33.7474C195.822 33.7675 196.022 33.7776 196.223 33.7776C196.424 33.7776 196.625 33.7675 196.826 33.7474C197.027 33.7071 197.247 33.6668 197.488 33.6265C197.167 34.4123 196.775 35.3292 196.314 36.377C195.852 37.4047 195.36 38.5432 194.838 39.7926C194.335 41.0218 193.813 42.3517 193.271 43.7824C192.749 45.193 192.257 46.6539 191.795 48.1652C191.514 48.1249 191.243 48.1047 190.982 48.1047C190.721 48.1047 190.45 48.1047 190.168 48.1047C189.887 48.1047 189.616 48.1047 189.355 48.1047C189.094 48.1047 188.823 48.1249 188.542 48.1652C188.14 47.0166 187.688 45.7471 187.186 44.3567C186.704 42.9663 186.222 41.6061 185.74 40.2762C185.258 38.9261 184.806 37.6667 184.385 36.4979C183.963 35.3292 183.612 34.3721 183.33 33.6265C183.752 33.6668 184.154 33.7071 184.535 33.7474C184.937 33.7675 185.329 33.7776 185.71 33.7776C186.092 33.7776 186.463 33.7675 186.825 33.7474C187.206 33.7071 187.588 33.6668 187.969 33.6265C188.512 35.3997 189.054 37.1629 189.596 38.916C190.158 40.6691 190.731 42.4323 191.313 44.2056H191.373Z" fill="#00296A"/>
<path d="M203.04 40.9412C203.04 41.7472 203.12 42.5029 203.281 43.2081C203.441 43.9134 203.682 44.528 204.004 45.0519C204.345 45.5557 204.767 45.9587 205.269 46.261C205.791 46.5431 206.393 46.6841 207.076 46.6841C208.462 46.6841 209.697 46.2307 210.781 45.324L211.143 45.596L210.48 47.2886C209.978 47.6715 209.376 47.9738 208.673 48.1954C207.97 48.4372 207.046 48.5581 205.901 48.5581C204.917 48.5581 203.983 48.4171 203.1 48.135C202.216 47.873 201.433 47.4297 200.75 46.805C200.088 46.1804 199.555 45.3945 199.154 44.4474C198.772 43.4802 198.581 42.3316 198.581 41.0016C198.581 39.6918 198.752 38.5533 199.093 37.5861C199.455 36.6189 199.947 35.8128 200.569 35.168C201.192 34.5232 201.925 34.0396 202.768 33.7172C203.632 33.3947 204.566 33.2335 205.57 33.2335C207.558 33.2335 209.074 33.8179 210.119 34.9866C211.183 36.1554 211.715 37.8077 211.715 39.9437V40.5785C211.715 40.7598 211.705 40.8807 211.685 40.9412H203.04ZM207.679 39.581C207.638 38.0697 207.448 36.8607 207.106 35.9539C206.785 35.0471 206.233 34.5937 205.449 34.5937C205.008 34.5937 204.636 34.7448 204.335 35.0471C204.034 35.3494 203.793 35.7423 203.612 36.2259C203.431 36.6894 203.291 37.2234 203.19 37.8279C203.11 38.4123 203.06 38.9966 203.04 39.581H207.679Z" fill="#00296A"/>
<path d="M218.583 37.3745C219.105 35.9841 219.738 34.9665 220.481 34.3217C221.224 33.6567 222.108 33.3242 223.132 33.3242C223.232 33.3242 223.313 33.3343 223.373 33.3544C223.453 33.3544 223.534 33.3544 223.614 33.3544C223.554 33.6567 223.503 33.9791 223.463 34.3217C223.443 34.6642 223.433 35.0672 223.433 35.5307V36.4979C223.433 36.6592 223.433 36.8304 223.433 37.0118C223.433 37.1931 223.443 37.3644 223.463 37.5256L223.192 37.7674C222.991 37.6465 222.76 37.5458 222.499 37.4652C222.258 37.3846 221.977 37.3443 221.656 37.3443C220.752 37.3443 220.039 37.6465 219.517 38.2511C218.995 38.8354 218.734 39.5306 218.734 40.3367V41.5457C218.734 42.7749 218.744 43.9336 218.764 45.0217C218.804 46.1098 218.874 47.1577 218.975 48.1652C218.714 48.1249 218.382 48.1047 217.981 48.1047C217.599 48.1047 217.178 48.1047 216.716 48.1047C216.254 48.1047 215.832 48.1047 215.45 48.1047C215.069 48.1047 214.738 48.1249 214.456 48.1652C214.557 47.1577 214.617 46.1098 214.637 45.0217C214.677 43.9336 214.697 42.7749 214.697 41.5457V40.3367C214.697 39.1075 214.677 37.9589 214.637 36.8909C214.617 35.8027 214.557 34.7146 214.456 33.6265C214.798 33.6668 215.139 33.7071 215.481 33.7474C215.842 33.7675 216.193 33.7776 216.535 33.7776C216.876 33.7776 217.218 33.7675 217.559 33.7474C217.921 33.7071 218.272 33.6668 218.613 33.6265L218.523 37.314L218.583 37.3745Z" fill="#00296A"/>
<path d="M226.436 44.4474C226.556 44.7698 226.707 45.0821 226.887 45.3844C227.088 45.6665 227.329 45.9285 227.61 46.1703C227.892 46.3919 228.223 46.5733 228.604 46.7143C229.006 46.8554 229.468 46.9259 229.99 46.9259C230.693 46.9259 231.235 46.7446 231.617 46.3819C231.998 46.0191 232.189 45.6262 232.189 45.203C232.189 44.7396 232.018 44.3668 231.677 44.0847C231.336 43.8026 230.904 43.5507 230.382 43.329C229.88 43.0872 229.327 42.8454 228.725 42.6036C228.123 42.3618 227.56 42.0595 227.038 41.6968C226.536 41.314 226.114 40.8404 225.773 40.2762C225.432 39.712 225.261 38.9866 225.261 38.0999C225.261 37.2536 225.411 36.5282 225.713 35.9237C226.034 35.299 226.446 34.7952 226.948 34.4123C227.45 34.0093 228.012 33.7172 228.635 33.5358C229.277 33.3343 229.91 33.2335 230.532 33.2335C231.376 33.2335 232.119 33.3544 232.762 33.5962C233.424 33.8381 234.097 34.1907 234.78 34.6542C234.599 35.0572 234.448 35.4904 234.328 35.9539C234.207 36.4173 234.117 36.8707 234.057 37.314H233.213C233.153 37.0722 233.053 36.8103 232.912 36.5282C232.772 36.2259 232.581 35.9438 232.34 35.6818C232.099 35.4199 231.808 35.2083 231.466 35.0471C231.125 34.8657 230.713 34.7751 230.231 34.7751C229.629 34.7751 229.117 34.9363 228.695 35.2587C228.293 35.5811 228.092 36.0043 228.092 36.5282C228.092 37.0118 228.263 37.4047 228.604 37.707C228.966 37.9891 229.408 38.241 229.93 38.4626C230.452 38.6843 231.024 38.906 231.647 39.1276C232.27 39.3493 232.842 39.6415 233.364 40.0042C233.886 40.3467 234.318 40.8001 234.659 41.3643C235.021 41.9286 235.202 42.654 235.202 43.5406C235.202 44.4272 235.041 45.193 234.72 45.8378C234.398 46.4625 233.966 46.9864 233.424 47.4095C232.882 47.8126 232.259 48.1047 231.557 48.2861C230.874 48.4675 230.151 48.5581 229.388 48.5581C228.484 48.5581 227.671 48.4272 226.948 48.1652C226.225 47.9032 225.652 47.6312 225.231 47.3491C225.472 46.3819 225.622 45.4146 225.683 44.4474H226.436Z" fill="#00296A"/>
<path d="M237.873 27.9137C237.873 27.2488 238.104 26.6846 238.565 26.2211C239.027 25.7576 239.59 25.5259 240.252 25.5259C240.915 25.5259 241.477 25.7576 241.939 26.2211C242.401 26.6846 242.632 27.2488 242.632 27.9137C242.632 28.5787 242.401 29.1429 241.939 29.6064C241.477 30.0699 240.915 30.3016 240.252 30.3016C239.59 30.3016 239.027 30.0699 238.565 29.6064C238.104 29.1429 237.873 28.5787 237.873 27.9137ZM238.234 40.3367C238.234 39.1075 238.214 37.9589 238.174 36.8909C238.154 35.8027 238.094 34.7146 237.993 33.6265C238.274 33.6668 238.606 33.7071 238.987 33.7474C239.369 33.7675 239.79 33.7776 240.252 33.7776C241.196 33.7776 241.949 33.7272 242.512 33.6265C242.411 34.7146 242.341 35.8027 242.301 36.8909C242.281 37.9589 242.271 39.1075 242.271 40.3367V41.5457C242.271 42.7749 242.281 43.9336 242.301 45.0217C242.341 46.1098 242.411 47.1577 242.512 48.1652C242.251 48.1249 241.919 48.1047 241.518 48.1047C241.136 48.1047 240.714 48.1047 240.252 48.1047C239.79 48.1047 239.369 48.1047 238.987 48.1047C238.606 48.1047 238.274 48.1249 237.993 48.1652C238.094 47.1577 238.154 46.1098 238.174 45.0217C238.214 43.9336 238.234 42.7749 238.234 41.5457V40.3367Z" fill="#00296A"/>
<path d="M253.968 33.7776C253.908 34.0799 253.878 34.3519 253.878 34.5937C253.878 34.8557 253.908 35.1075 253.968 35.3494L251.317 35.2889C251.277 35.7524 251.237 36.2864 251.197 36.8909C251.177 37.4954 251.157 38.11 251.137 38.7347C251.137 39.3593 251.127 39.9639 251.106 40.5482C251.106 41.1326 251.106 41.6263 251.106 42.0293C251.106 43.0771 251.127 43.9235 251.167 44.5683C251.227 45.2131 251.317 45.7068 251.438 46.0494C251.558 46.3919 251.729 46.6237 251.95 46.7446C252.171 46.8655 252.452 46.9259 252.793 46.9259C253.175 46.9259 253.456 46.9058 253.637 46.8655C253.818 46.805 253.998 46.7244 254.179 46.6237V47.8629C253.777 48.0443 253.275 48.2055 252.673 48.3466C252.07 48.4876 251.478 48.5581 250.896 48.5581C248.345 48.5581 247.07 47.0267 247.07 43.9638C247.07 43.3794 247.08 42.7245 247.1 41.9991C247.12 41.2535 247.14 40.4979 247.16 39.7321C247.2 38.9463 247.231 38.1805 247.251 37.435C247.271 36.6692 247.281 35.964 247.281 35.3191L245.172 35.3494C245.232 35.1075 245.263 34.8557 245.263 34.5937C245.263 34.3519 245.232 34.0799 245.172 33.7776L247.281 33.8683C247.281 33.2436 247.271 32.6592 247.251 32.1152C247.231 31.5711 247.2 30.9162 247.16 30.1505C247.863 29.8684 248.556 29.5762 249.239 29.2739C249.922 28.9515 250.604 28.619 251.287 28.2765L251.588 28.488C251.548 28.8105 251.508 29.1933 251.468 29.6366C251.448 30.0598 251.418 30.5132 251.378 30.9968C251.357 31.4603 251.337 31.9439 251.317 32.4477C251.317 32.9313 251.317 33.3947 251.317 33.8381L253.968 33.7776Z" fill="#00296A"/>
<path d="M263.126 43.1175C263.487 42.1905 263.819 41.3341 264.12 40.5482C264.421 39.7422 264.702 38.9664 264.963 38.2208C265.245 37.4753 265.506 36.7297 265.747 35.9841C266.008 35.2385 266.269 34.4527 266.53 33.6265C266.751 33.6668 266.952 33.7071 267.132 33.7474C267.333 33.7675 267.534 33.7776 267.735 33.7776C267.936 33.7776 268.136 33.7675 268.337 33.7474C268.538 33.7071 268.759 33.6668 269 33.6265C268.9 33.8884 268.659 34.4527 268.277 35.3191C267.916 36.1655 267.464 37.2234 266.921 38.4929C266.399 39.7422 265.817 41.1326 265.174 42.6641C264.532 44.1955 263.879 45.7471 263.216 47.3189C262.574 48.8705 261.941 50.412 261.319 51.9435C260.716 53.4749 260.184 54.8653 259.722 56.1146C259.501 56.0743 259.29 56.034 259.089 55.9937C258.889 55.9736 258.678 55.9635 258.457 55.9635C258.236 55.9635 258.025 55.9736 257.824 55.9937C257.623 56.034 257.413 56.0743 257.192 56.1146C257.854 54.7847 258.507 53.4648 259.15 52.155C259.792 50.8654 260.415 49.5556 261.017 48.2257C260.535 47.0771 259.993 45.7773 259.391 44.3265C258.808 42.8756 258.226 41.455 257.643 40.0646C257.081 38.6742 256.559 37.4047 256.077 36.2561C255.615 35.1076 255.264 34.231 255.023 33.6265C255.404 33.6668 255.776 33.7071 256.137 33.7474C256.519 33.7675 256.9 33.7776 257.282 33.7776C257.664 33.7776 258.035 33.7675 258.397 33.7474C258.758 33.7071 259.13 33.6668 259.511 33.6265C260.094 35.2184 260.676 36.8002 261.258 38.372C261.861 39.9437 262.483 41.5255 263.126 43.1175Z" fill="#00296A"/>
</svg>
