<svg width="40" height="48" viewBox="0 0 40 48" fill="none" xmlns="http://www.w3.org/2000/svg">
<path d="M15.3335 26C14.8031 26 14.2944 25.7893 13.9193 25.4142C13.5442 25.0391 13.3335 24.5304 13.3335 24C13.3335 23.4696 13.5442 22.9609 13.9193 22.5858C14.2944 22.2107 14.8031 22 15.3335 22C15.8639 22 16.3726 22.2107 16.7477 22.5858C17.1228 22.9609 17.3335 23.4696 17.3335 24C17.3335 24.5304 17.1228 25.0391 16.7477 25.4142C16.3726 25.7893 15.8639 26 15.3335 26ZM24.6668 26C24.1364 26 23.6277 25.7893 23.2526 25.4142C22.8775 25.0391 22.6668 24.5304 22.6668 24C22.6668 23.4696 22.8775 22.9609 23.2526 22.5858C23.6277 22.2107 24.1364 22 24.6668 22C25.1973 22 25.706 22.2107 26.081 22.5858C26.4561 22.9609 26.6668 23.4696 26.6668 24C26.6668 24.5304 26.4561 25.0391 26.081 25.4142C25.706 25.7893 25.1973 26 24.6668 26ZM20.0002 26C19.4697 26 18.961 25.7893 18.5859 25.4142C18.2109 25.0391 18.0002 24.5304 18.0002 24C18.0002 23.4696 18.2109 22.9609 18.5859 22.5858C18.961 22.2107 19.4697 22 20.0002 22C20.5306 22 21.0393 22.2107 21.4144 22.5858C21.7894 22.9609 22.0002 23.4696 22.0002 24C22.0002 24.5304 21.7894 25.0391 21.4144 25.4142C21.0393 25.7893 20.5306 26 20.0002 26Z" fill="#697077"/>
</svg>
